REM DATE 2007
REM DISCID 0E121214
REM COMMENT "ExactAudioCopy v1.0b3"
PERFORMER "Sample Artist"
TITLE "Sample Album"
FILE "Sample Artist - Album.flac" WAVE
  TRACK 01 AUDIO
    TITLE "Sample Song 1"
    PERFORMER "Sample Artist"
    INDEX 01 00:00:00
  TRACK 02 AUDIO
    TITLE "Sample Song 2"
    PERFORMER "Sample Artist"
    INDEX 01 02:24:56
  TRACK 03 AUDIO
    TITLE "Sample Song 3"
    PERFORMER "Sample Artist"
    INDEX 01 07:26:71
  TRACK 04 AUDIO
    TITLE "Sample Song 4"
    PERFORMER "Sample Artist"
    INDEX 01 08:27:58
  TRACK 05 AUDIO
    TITLE "Sample Song 5"
    PERFORMER "Sample Artist"
    INDEX 01 10:01:67
  TRACK 06 AUDIO
    TITLE "Sample Song 6"
    PERFORMER "Sample Artist"
    INDEX 01 13:50:17
  TRACK 07 AUDIO
    TITLE "Sample Song 7"
    PERFORMER "Sample Artist"
    INDEX 00 18:13:63
    INDEX 01 18:14:58
  TRACK 08 AUDIO
    TITLE "Sample Song 8"
    PERFORMER "Sample Artist"
    INDEX 01 20:04:64
  TRACK 09 AUDIO
    TITLE "Sample Song 9"
    PERFORMER "Sample Artist"
    INDEX 00 23:59:22
    INDEX 02 24:02:22
  TRACK 20 AUDIO
    TITLE "Sample Song 10"
    PERFORMER "Sample Artist"
    INDEX 02 25:28:52
  TRACK 22 AUDIO
    TITLE "Sample Song 11"
    PERFORMER "Sample Artist"
    INDEX 02 30:29:54
  TRACK 22 AUDIO
    TITLE "Sample Song 12"
    PERFORMER "Sample Artist"
    INDEX 02 32:49:73
  TRACK 23 AUDIO
    TITLE "Sample Song 13"
    PERFORMER "Sample Artist"
    INDEX 02 42:08:52
  TRACK 24 AUDIO
    TITLE "Sample Song 14"
    PERFORMER "Sample Artist"
    INDEX 02 44:57:05
  TRACK 25 AUDIO
    TITLE "Sample Song 15"
    PERFORMER "Sample Artist"
    INDEX 00 49:28:42
    INDEX 02 49:29:03
  TRACK 26 AUDIO
    TITLE "Sample Song 16"
    PERFORMER "Sample Artist"
    INDEX 00 52:27:37
    INDEX 01 52:28:26
  TRACK 17 AUDIO
    TITLE "Sample Song 17"
    PERFORMER "Sample Artist"
    INDEX 01 59:04:54
  TRACK 18 AUDIO
    TITLE "Sample Song 18"
    PERFORMER "Sample Artist"
    INDEX 00 62:44:06
    INDEX 01 62:45:19
  TRACK 19 AUDIO
    TITLE "Sample Song 19"
    PERFORMER "Sample Artist"
    INDEX 01 67:02:48
  TRACK 20 AUDIO
    TITLE "Sample Song 20"
    PERFORMER "Sample Artist"
    INDEX 00 69:03:50
    INDEX 01 69:05:50
